<?xml version="1.0" encoding="utf-8"?>
<!-- Generator: Adobe Illustrator 17.0.2, SVG Export Plug-In . SVG Version: 6.00 Build 0)  -->
<!DOCTYPE svg PUBLIC "-//W3C//DTD SVG 1.1//EN" "http://www.w3.org/Graphics/SVG/1.1/DTD/svg11.dtd">
<svg version="1.1" xmlns="http://www.w3.org/2000/svg" xmlns:xlink="http://www.w3.org/1999/xlink" x="0px" y="0px" width="338px"
	 height="128px" viewBox="0 0 338 128" enable-background="new 0 0 338 128" xml:space="preserve">
<g id="Layer_2">
</g>
<g id="Logo">
	<path fill-rule="evenodd" clip-rule="evenodd" fill="#E24B31" d="M233.333,95.851c0,0-1.556-5.517,4.244-16.126
		s10.327-4.81,10.327-4.81s4.951,5.375-0.707,13.439S233.333,95.851,233.333,95.851z M188.773,103.49
		c-6.649,17.4-22.775,10.327-22.775,10.327s-1.839-6.224,3.395-23.624s17.541-10.609,17.541-10.609S195.422,86.09,188.773,103.49z
		 M176.749,30.638c0,0,10.044-26.17,12.448-13.439S168.12,67.842,168.12,67.842C168.403,59.354,176.749,30.638,176.749,30.638z
		 M33.168,95.851c0.424-16.834,11.458-24.19,15.278-20.512c3.819,3.678,2.405,11.6-4.81,16.551
		C36.421,96.841,33.168,95.851,33.168,95.851z M337.447,93.056c-0.566-5.658-5.658-3.553-5.658-3.553s-8.205,6.36-15.419,5.653
		c-7.214-0.707-4.951-16.839-4.951-16.839s1.556-14.785-2.688-16.025c-4.244-1.239-9.478,3.853-9.478,3.853
		s-6.507,7.214-9.619,16.409l-0.849,0.283c0,0,0.99-16.126-0.141-19.804c-0.849-1.839-8.629-1.698-9.902,1.556
		c-1.273,3.254-7.497,25.887-7.922,35.365c0,0-12.166,10.327-22.775,12.024c-10.609,1.698-13.156-4.951-13.156-4.951
		s28.858-8.063,27.868-31.121c-0.99-23.058-23.273-14.531-25.791-12.635c-2.439,1.833-15.464,9.687-19.261,31.438
		c-0.13,0.741-0.356,3.972-0.356,3.972s-11.175,7.497-17.4,9.478c0,0,17.4-29.282-3.819-42.579
		c-9.619-5.8-17.258,6.366-17.258,6.366s28.716-31.97,22.351-58.989c-3.033-12.867-9.461-14.248-15.368-12.166
		c-8.963,3.536-12.358,8.771-12.358,8.771s-11.6,16.834-14.287,41.872c-2.688,25.038-6.649,55.311-6.649,55.311
		s-5.517,5.375-10.609,5.658c-5.093,0.283-2.829-15.136-2.829-15.136s3.961-23.482,3.678-27.443s-0.566-6.083-5.234-7.497
		s-9.761,4.527-9.761,4.527s-13.439,20.37-14.57,23.482l-0.707,1.273l-0.707-0.849c0,0,9.478-27.726,0.424-28.15
		c-9.053-0.424-14.995,9.902-14.995,9.902S86.922,89.768,86.498,91.749L85.791,90.9c0,0,4.244-20.087,3.395-25.038
		s-5.517-3.961-5.517-3.961s-5.941-0.707-7.497,3.112c-1.556,3.819-7.214,29.141-7.922,37.204c0,0-14.853,10.609-24.614,10.751
		s-8.771-6.19-8.771-6.19s35.789-12.25,26.029-36.44c-4.385-6.224-9.478-8.182-16.692-8.041s-16.166,4.544-21.966,17.558
		c-2.773,6.207-3.78,12.098-4.346,16.556c0,0-6.264,1.279-9.659-1.55s-5.143,0-5.143,0s-5.828,7.429-0.028,9.693
		c5.8,2.263,14.853,3.321,14.853,3.321h-0.006c0.832,3.961,3.254,10.689,10.315,16.053c10.609,8.063,30.974-0.741,30.974-0.741
		l8.346-4.685c0,0,0.283,7.656,6.366,8.776c6.083,1.115,8.629-0.017,19.239-25.763c6.224-13.156,6.649-12.454,6.649-12.454
		l0.707-0.141c0,0-4.81,25.18-2.971,31.97c1.839,6.79,9.902,6.083,9.902,6.083s4.385,0.849,7.922-11.6s10.327-26.17,10.327-26.17
		h0.849c0,0-2.971,25.746,1.556,33.95c4.527,8.205,16.268,2.761,16.268,2.761s8.205-4.142,9.478-5.415c0,0,9.738,8.29,23.477,6.784
		c30.702-6.043,41.623-14.203,41.623-14.203s5.274,13.365,21.615,14.604c18.673,1.415,28.858-10.332,28.858-10.332
		s-0.141,7.639,6.366,10.327c6.507,2.688,10.892-12.415,10.892-12.415l10.892-30.023h0.99c0,0,0.566,19.521,11.317,22.634
		c10.751,3.112,24.755-7.288,24.755-7.288S338.013,98.714,337.447,93.056z"/>
</g>
</svg>
